<svg width="131" height="168" viewBox="0 0 131 168" fill="none" xmlns="http://www.w3.org/2000/svg">
    <g clip-path="url(#clip0_109_224)">
        <path d="M65.4947 -0.026123C29.3237 -0.026123 -0.00524902 28.4095 -0.00524902 63.4895C-0.00524902 64.1718 0.319813 80.4942 5.95073 92.1351C22.0832 128.218 65.4371 168.173 65.4947 167.969C65.5681 168.105 108.738 128.37 124.95 92.3503C129.763 83.8112 131 64.8803 131 63.4843C131.005 28.4095 101.671 -0.026123 65.4947 -0.026123ZM65.5052 83.9686C55.3602 83.9686 47.155 75.7497 47.155 65.6046C47.155 55.4543 55.3602 47.2301 65.5052 47.2301C75.6451 47.2301 83.8555 55.4543 83.8555 65.6046C83.8555 75.7497 75.6451 83.9686 65.5052 83.9686Z" fill="#232323"/>
        <path d="M65.5052 36.7385C49.5825 36.7385 36.6691 49.66 36.6691 65.6045C36.6691 81.5438 49.5825 94.4652 65.5052 94.4652C81.428 94.4652 94.3414 81.5438 94.3414 65.6045C94.3414 49.66 81.428 36.7385 65.5052 36.7385ZM65.5052 83.9685C55.3602 83.9685 47.1549 75.7496 47.1549 65.6045C47.1549 55.4542 55.3602 47.23 65.5052 47.23C75.645 47.23 83.8555 55.4542 83.8555 65.6045C83.8555 75.7496 75.645 83.9685 65.5052 83.9685Z" fill="#B6B6B6"/>
    </g>
    <defs>
        <clipPath id="clip0_109_224">
            <rect width="131" height="168" fill="white"/>
        </clipPath>
    </defs>
</svg>
